<svg width="512" height="512" viewBox="0 0 512 512" fill="none" xmlns="http://www.w3.org/2000/svg">
<rect width="512" height="512" rx="256" fill="white"/>
<path fill-rule="evenodd" clip-rule="evenodd" d="M256 86.6901C162.493 86.6901 86.6901 162.493 86.6901 256C86.6901 349.507 162.493 425.31 256 425.31C349.507 425.31 425.31 349.507 425.31 256C425.31 162.493 349.507 86.6901 256 86.6901ZM34.5947 256C34.5947 133.721 133.721 34.5947 256 34.5947C378.279 34.5947 477.406 133.721 477.406 256C477.406 378.279 378.279 477.406 256 477.406C133.721 477.406 34.5947 378.279 34.5947 256Z" fill="#5850EC"/>
<path d="M265.768 187.625C265.768 209.204 248.275 226.696 226.696 226.696C205.118 226.696 187.625 209.204 187.625 187.625C187.625 166.046 205.118 148.553 226.696 148.553C248.275 148.553 265.768 166.046 265.768 187.625Z" fill="#5850EC"/>
<path d="M382.983 226.696C382.983 253.67 361.116 275.536 334.143 275.536C307.17 275.536 285.304 253.67 285.304 226.696C285.304 199.723 307.17 177.857 334.143 177.857C361.116 177.857 382.983 199.723 382.983 226.696Z" fill="#5850EC"/>
<path d="M285.304 304.84C285.304 337.207 259.064 363.447 226.696 363.447C194.329 363.447 168.089 337.207 168.089 304.84C168.089 272.472 194.329 246.232 226.696 246.232C259.064 246.232 285.304 272.472 285.304 304.84Z" fill="#5850EC"/>
</svg>
